<svg xmlns="http://www.w3.org/2000/svg" viewBox="0 0 24 24" aria-hidden="true">
  <path fill="#E4405F" d="M12 2.16c3.2 0 3.58.01 4.85.07 1.17.05 1.8.25 2.22.42.56.22.96.48 1.38.9.42.42.68.82.9 1.38.17.42.37 1.05.42 2.22.06 1.27.07 1.65.07 4.85s-.01 3.58-.07 4.85c-.05 1.17-.25 1.8-.42 2.22a3.72 3.72 0 0 1-.9 1.38 3.72 3.72 0 0 1-1.38.9c-.42.17-1.05.37-2.22.42-1.27.06-1.65.07-4.85.07s-3.58-.01-4.85-.07c-1.17-.05-1.8-.25-2.22-.42a3.72 3.72 0 0 1-1.38-.9 3.72 3.72 0 0 1-.9-1.38c-.17-.42-.37-1.05-.42-2.22-.06-1.27-.07-1.65-.07-4.85s.01-3.58.07-4.85c.05-1.17.25-1.8.42-2.22.22-.56.48-.96.9-1.38.42-.42.82-.68 1.38-.9.42-.17 1.05-.37 2.22-.42C8.42 2.17 8.8 2.16 12 2.16ZM12 0C8.74 0 8.33.01 7.05.07 5.77.13 4.9.33 4.14.63c-.79.31-1.46.72-2.13 1.39C1.34 2.68.93 3.35.62 4.14.33 4.9.13 5.77.07 7.05.01 8.33 0 8.74 0 12s.01 3.67.07 4.95c.06 1.28.26 2.15.56 2.91.31.79.72 1.46 1.39 2.13.67.67 1.34 1.08 2.13 1.39.76.3 1.63.5 2.91.56C8.33 23.99 8.74 24 12 24s3.67-.01 4.95-.07c1.28-.06 2.15-.26 2.91-.56.79-.31 1.46-.72 2.13-1.39.67-.67 1.08-1.34 1.39-2.13.3-.76.5-1.63.56-2.91.05-1.27.06-1.68.06-4.94s-.01-3.67-.07-4.95c-.06-1.28-.26-2.15-.56-2.91-.31-.79-.72-1.46-1.39-2.13A5.9 5.9 0 0 0 19.86.62c-.76-.3-1.63-.5-2.91-.56C15.67.01 15.26 0 12 0Zm0 5.84a6.16 6.16 0 1 0 0 12.32 6.16 6.16 0 0 0 0-12.32ZM12 16a4 4 0 1 1 0-8 4 4 0 0 1 0 8Zm7.85-10.4a1.44 1.44 0 1 1-2.88 0 1.44 1.44 0 0 1 2.88 0Z"/>
</svg>
